<mxfile host="Electron" agent="Mozilla/5.0 (Windows NT 10.0; Win64; x64) AppleWebKit/537.36 (KHTML, like Gecko) draw.io/24.7.17 Chrome/128.0.6613.36 Electron/32.0.1 Safari/537.36" version="24.7.17">
  <diagram name="mv1" id="No3tiavd3VeYQ0ETVFXS">
    <mxGraphModel dx="2149" dy="2207" grid="1" gridSize="10" guides="1" tooltips="1" connect="1" arrows="1" fold="1" page="1" pageScale="1" pageWidth="1100" pageHeight="850" math="0" shadow="0">
      <root>
        <mxCell id="0" />
        <mxCell id="1" parent="0" />
        <mxCell id="6I6sj6lgImSwd84NHeRp-36" value="" style="rounded=1;whiteSpace=wrap;html=1;strokeWidth=3;fontColor=#000000;fillColor=default;" parent="1" vertex="1">
          <mxGeometry x="90" y="-760" width="1860" height="2410" as="geometry" />
        </mxCell>
        <mxCell id="NseHv8oOHJ2EzqwxYGIs-5" value="Mv2 IMAGE append" style="rounded=0;whiteSpace=wrap;html=1;verticalAlign=top;fillColor=#ffe6cc;strokeColor=#d79b00;fontStyle=1;fontColor=#000000;" parent="1" vertex="1">
          <mxGeometry x="852.65" y="1095" width="420" height="180" as="geometry" />
        </mxCell>
        <mxCell id="RQgMuBRWUg0oYU4yPysI-5" value="" style="rounded=1;whiteSpace=wrap;html=1;fillColor=none;strokeColor=#d79b00;fontColor=#000000;" vertex="1" parent="1">
          <mxGeometry x="1140" y="1116.39" width="120" height="123.61" as="geometry" />
        </mxCell>
        <mxCell id="FoUPgF81jLXficwNEzEN-10" value="IMAGE append" style="rounded=0;whiteSpace=wrap;html=1;verticalAlign=top;fillColor=#ffe6cc;strokeColor=#d79b00;fontStyle=1;fontColor=#000000;" parent="1" vertex="1">
          <mxGeometry x="1157.65" y="650" width="495" height="155" as="geometry" />
        </mxCell>
        <mxCell id="RQgMuBRWUg0oYU4yPysI-4" value="" style="rounded=1;whiteSpace=wrap;html=1;fillColor=none;strokeColor=#d79b00;fontColor=#000000;" vertex="1" parent="1">
          <mxGeometry x="1170" y="710" width="410" height="90" as="geometry" />
        </mxCell>
        <mxCell id="AQ5LlWUHZtdL1F9q4RZN-53" value="STUBS Mv1" style="rounded=0;whiteSpace=wrap;html=1;verticalAlign=top;fillColor=#ffe6cc;strokeColor=#d79b00;fontStyle=1;fontColor=#000000;" parent="1" vertex="1">
          <mxGeometry x="732.65" y="1430" width="110" height="140" as="geometry" />
        </mxCell>
        <mxCell id="NseHv8oOHJ2EzqwxYGIs-35" value="" style="rounded=0;whiteSpace=wrap;html=1;verticalAlign=top;fillColor=#fff2cc;strokeColor=#d6b656;fontStyle=0;fontColor=#000000;" parent="1" vertex="1">
          <mxGeometry x="332.64" y="370" width="1435" height="80" as="geometry" />
        </mxCell>
        <mxCell id="6I6sj6lgImSwd84NHeRp-71" value="LXDINT-INIT-MV3" style="rounded=0;whiteSpace=wrap;html=1;verticalAlign=top;fillColor=#ffe6cc;strokeColor=#d79b00;fontStyle=1;fontColor=#000000;" parent="1" vertex="1">
          <mxGeometry x="1281.5400000000002" y="815" width="490" height="270" as="geometry" />
        </mxCell>
        <mxCell id="FoUPgF81jLXficwNEzEN-3" value="&lt;div&gt;&lt;b&gt;S51lxdinit_mv3&lt;/b&gt;&lt;/div&gt;" style="rounded=1;whiteSpace=wrap;html=1;fillColor=#ffe6cc;strokeColor=#d79b00;fontStyle=0;strokeWidth=2;fontColor=#000000;verticalAlign=top;" parent="1" vertex="1">
          <mxGeometry x="1301.5400000000002" y="862.35" width="440" height="202.65" as="geometry" />
        </mxCell>
        <mxCell id="AQ5LlWUHZtdL1F9q4RZN-33" value="LXDINI_INIT-MV2PLUS" style="rounded=0;whiteSpace=wrap;html=1;verticalAlign=top;fillColor=#ffe6cc;strokeColor=#d79b00;fontStyle=1;fontColor=#000000;" parent="1" vertex="1">
          <mxGeometry x="851.54" y="815" width="420" height="270" as="geometry" />
        </mxCell>
        <mxCell id="FoUPgF81jLXficwNEzEN-2" value="&lt;div&gt;&lt;b&gt;S51lxdinit_mv2plus&lt;/b&gt;&lt;/div&gt;" style="rounded=1;whiteSpace=wrap;html=1;fillColor=#ffe6cc;strokeColor=#d79b00;fontStyle=0;strokeWidth=2;fontColor=#000000;verticalAlign=top;" parent="1" vertex="1">
          <mxGeometry x="871.54" y="862.35" width="362.5" height="212.65" as="geometry" />
        </mxCell>
        <mxCell id="6I6sj6lgImSwd84NHeRp-20" value="LXDINT-INIT-MV1" style="rounded=0;whiteSpace=wrap;html=1;verticalAlign=top;fillColor=#ffe6cc;strokeColor=#d79b00;fontStyle=1;fontColor=#000000;" parent="1" vertex="1">
          <mxGeometry x="334.03999999999996" y="815" width="507.5" height="270" as="geometry" />
        </mxCell>
        <mxCell id="AQ5LlWUHZtdL1F9q4RZN-57" value="&lt;div&gt;&lt;b&gt;S51lxdinit_mv1&lt;/b&gt;&lt;/div&gt;" style="rounded=1;whiteSpace=wrap;html=1;fillColor=#ffe6cc;strokeColor=#d79b00;fontStyle=0;strokeWidth=2;fontColor=#000000;verticalAlign=top;" parent="1" vertex="1">
          <mxGeometry x="346.53999999999996" y="855" width="375" height="220" as="geometry" />
        </mxCell>
        <mxCell id="6I6sj6lgImSwd84NHeRp-65" value="LXDINT-INIT" style="rounded=0;whiteSpace=wrap;html=1;verticalAlign=top;fillColor=#ffe6cc;strokeColor=#d79b00;fontStyle=1;fontColor=#000000;" parent="1" vertex="1">
          <mxGeometry x="335.15" y="650" width="737.5" height="155" as="geometry" />
        </mxCell>
        <mxCell id="FoUPgF81jLXficwNEzEN-1" value="&lt;div&gt;&lt;b&gt;S50lxdinit&lt;/b&gt;&lt;/div&gt;" style="rounded=1;whiteSpace=wrap;html=1;fillColor=#ffe6cc;strokeColor=#d79b00;fontStyle=0;strokeWidth=2;fontColor=#000000;verticalAlign=top;align=left;" parent="1" vertex="1">
          <mxGeometry x="342.65" y="700" width="600" height="65" as="geometry" />
        </mxCell>
        <mxCell id="6I6sj6lgImSwd84NHeRp-8" value="" style="rounded=0;whiteSpace=wrap;html=1;verticalAlign=top;fillColor=#d5e8d4;strokeColor=#82b366;fontStyle=1;strokeWidth=2;fontColor=#000000;" parent="1" vertex="1">
          <mxGeometry x="340" y="-730" width="1430" height="110" as="geometry" />
        </mxCell>
        <mxCell id="6I6sj6lgImSwd84NHeRp-1" value="" style="rounded=0;whiteSpace=wrap;html=1;verticalAlign=top;fillColor=#fff2cc;strokeColor=#d6b656;fontStyle=0;fontColor=#000000;" parent="1" vertex="1">
          <mxGeometry x="335" width="1435" height="330" as="geometry" />
        </mxCell>
        <mxCell id="P2RASbxnNR1XabgKeKC1-1" value="Mv1" style="rounded=0;whiteSpace=wrap;html=1;verticalAlign=top;fillColor=#dae8fc;strokeColor=#6c8ebf;fontStyle=1;strokeWidth=2;fontColor=#000000;" parent="1" vertex="1">
          <mxGeometry x="335" y="-240" width="525" height="110" as="geometry" />
        </mxCell>
        <mxCell id="P2RASbxnNR1XabgKeKC1-2" value="WAN" style="rounded=0;whiteSpace=wrap;html=1;fontSize=17;fontColor=#000000;" parent="1" vertex="1">
          <mxGeometry x="1852.65" y="1260" width="120" height="170" as="geometry" />
        </mxCell>
        <mxCell id="P2RASbxnNR1XabgKeKC1-4" value="LAN" style="rounded=0;whiteSpace=wrap;html=1;fontSize=17;fontColor=#000000;" parent="1" vertex="1">
          <mxGeometry x="32.65" y="1260" width="120" height="160" as="geometry" />
        </mxCell>
        <mxCell id="P2RASbxnNR1XabgKeKC1-5" value="CcspCrSsp" style="rounded=1;whiteSpace=wrap;html=1;fillColor=#d5e8d4;strokeColor=#8bb971;fontColor=#000000;" parent="1" vertex="1">
          <mxGeometry x="470" y="-670" width="120" height="30" as="geometry" />
        </mxCell>
        <mxCell id="P2RASbxnNR1XabgKeKC1-6" value="&lt;div&gt;service_wan&lt;/div&gt;" style="rounded=1;whiteSpace=wrap;html=1;verticalAlign=middle;fillColor=#dae8fc;strokeColor=#6c8ebf;fontColor=#000000;" parent="1" vertex="1">
          <mxGeometry x="695" y="-230" width="110" height="30" as="geometry" />
        </mxCell>
        <mxCell id="P2RASbxnNR1XabgKeKC1-7" value="CM&lt;div&gt;&lt;h2 id=&quot;link174&quot;&gt;&lt;span style=&quot;font-weight: normal;&quot;&gt;&lt;font style=&quot;font-size: 10px;&quot;&gt;libcm_mgnt.so.0&lt;/font&gt;&lt;/span&gt;&lt;/h2&gt;&lt;/div&gt;" style="rounded=1;whiteSpace=wrap;html=1;fillColor=#fff2cc;strokeColor=#d6b656;fontColor=#000000;fontStyle=0;verticalAlign=top;strokeWidth=2;" parent="1" vertex="1">
          <mxGeometry x="365" y="20" width="90" height="240" as="geometry" />
        </mxCell>
        <mxCell id="P2RASbxnNR1XabgKeKC1-8" value="PLATFORM&lt;div&gt;&lt;br&gt;&lt;div&gt;libhal_platform.so.0&lt;br&gt;&lt;/div&gt;&lt;/div&gt;" style="rounded=1;whiteSpace=wrap;html=1;fillColor=#fff2cc;strokeColor=#d6b656;fontColor=#000000;fontStyle=0;verticalAlign=top;strokeWidth=2;" parent="1" vertex="1">
          <mxGeometry x="1095" y="20" width="225" height="240" as="geometry" />
        </mxCell>
        <mxCell id="P2RASbxnNR1XabgKeKC1-9" value="WIFI" style="rounded=1;whiteSpace=wrap;html=1;fillColor=#fff2cc;strokeColor=#d6b656;fontColor=#000000;fontStyle=0" parent="1" vertex="1">
          <mxGeometry x="1370" y="20" width="90" height="240" as="geometry" />
        </mxCell>
        <mxCell id="P2RASbxnNR1XabgKeKC1-10" value="MTA&lt;div&gt;&lt;br&gt;&lt;/div&gt;&lt;div&gt;libhal_mta.so.0&lt;br&gt;&lt;/div&gt;" style="rounded=1;whiteSpace=wrap;html=1;fillColor=#fff2cc;strokeColor=#d6b656;fontColor=#000000;fontStyle=0;verticalAlign=top;strokeWidth=2;" parent="1" vertex="1">
          <mxGeometry x="985" y="20" width="90" height="240" as="geometry" />
        </mxCell>
        <mxCell id="6I6sj6lgImSwd84NHeRp-9" value="" style="rounded=0;whiteSpace=wrap;html=1;fillColor=#f5f5f5;strokeColor=#666666;fontColor=#000000;" parent="1" vertex="1">
          <mxGeometry x="335" y="-120" width="800" height="95" as="geometry" />
        </mxCell>
        <mxCell id="6I6sj6lgImSwd84NHeRp-10" value="&lt;div&gt;&lt;span style=&quot;background-color: initial;&quot;&gt;service_dhcp&lt;/span&gt;&lt;br&gt;&lt;/div&gt;" style="rounded=1;whiteSpace=wrap;html=1;verticalAlign=middle;fillColor=#dae8fc;strokeColor=#6c8ebf;fontColor=#000000;" parent="1" vertex="1">
          <mxGeometry x="695" y="-170" width="110" height="30" as="geometry" />
        </mxCell>
        <mxCell id="6I6sj6lgImSwd84NHeRp-11" value="&lt;div&gt;service_multinet&lt;/div&gt;" style="rounded=1;whiteSpace=wrap;html=1;verticalAlign=middle;fillColor=#dae8fc;strokeColor=#6c8ebf;fontColor=#000000;" parent="1" vertex="1">
          <mxGeometry x="695" y="-200" width="110" height="30" as="geometry" />
        </mxCell>
        <mxCell id="6I6sj6lgImSwd84NHeRp-12" value="&lt;div&gt;&lt;span style=&quot;background-color: initial;&quot;&gt;gwprov_utopia&lt;/span&gt;&lt;br&gt;&lt;/div&gt;" style="rounded=1;whiteSpace=wrap;html=1;verticalAlign=middle;fillColor=#dae8fc;strokeColor=#6c8ebf;fontColor=#000000;" parent="1" vertex="1">
          <mxGeometry x="380" y="-210" width="110" height="30" as="geometry" />
        </mxCell>
        <mxCell id="6I6sj6lgImSwd84NHeRp-14" value="&lt;div&gt;&lt;span style=&quot;background-color: initial;&quot;&gt;udhcpc&lt;/span&gt;&lt;br&gt;&lt;/div&gt;" style="rounded=1;whiteSpace=wrap;html=1;verticalAlign=middle;fillColor=#f5f5f5;strokeColor=#666666;fontColor=#000000;" parent="1" vertex="1">
          <mxGeometry x="375" y="-65" width="75" height="30" as="geometry" />
        </mxCell>
        <mxCell id="6I6sj6lgImSwd84NHeRp-15" value="&lt;div&gt;&lt;span style=&quot;background-color: initial;&quot;&gt;dnsmasq&lt;/span&gt;&lt;br&gt;&lt;/div&gt;" style="rounded=1;whiteSpace=wrap;html=1;verticalAlign=middle;fillColor=#f5f5f5;strokeColor=#666666;fontColor=#000000;" parent="1" vertex="1">
          <mxGeometry x="375" y="-105" width="75" height="30" as="geometry" />
        </mxCell>
        <mxCell id="6I6sj6lgImSwd84NHeRp-16" value="&lt;div&gt;&lt;span style=&quot;background-color: initial;&quot;&gt;dibbler-client&lt;/span&gt;&lt;br&gt;&lt;/div&gt;" style="rounded=1;whiteSpace=wrap;html=1;verticalAlign=middle;fillColor=#f5f5f5;strokeColor=#666666;fontColor=#000000;" parent="1" vertex="1">
          <mxGeometry x="470" y="-65" width="90" height="30" as="geometry" />
        </mxCell>
        <mxCell id="6I6sj6lgImSwd84NHeRp-17" value="&lt;div&gt;&lt;span style=&quot;background-color: initial;&quot;&gt;dibbler-server&lt;/span&gt;&lt;br&gt;&lt;/div&gt;" style="rounded=1;whiteSpace=wrap;html=1;verticalAlign=middle;fillColor=#f5f5f5;strokeColor=#666666;fontColor=#000000;" parent="1" vertex="1">
          <mxGeometry x="470" y="-105" width="90" height="30" as="geometry" />
        </mxCell>
        <mxCell id="6I6sj6lgImSwd84NHeRp-18" value="&lt;div&gt;CcspPandMSsp&lt;/div&gt;" style="rounded=1;whiteSpace=wrap;html=1;fillColor=#d5e8d4;strokeColor=#8bb971;fontColor=#000000;" parent="1" vertex="1">
          <mxGeometry x="610" y="-710" width="120" height="30" as="geometry" />
        </mxCell>
        <mxCell id="6I6sj6lgImSwd84NHeRp-19" value="PsmSsp" style="rounded=1;whiteSpace=wrap;html=1;fillColor=#d5e8d4;strokeColor=#8bb971;fontColor=#000000;" parent="1" vertex="1">
          <mxGeometry x="470" y="-710" width="120" height="30" as="geometry" />
        </mxCell>
        <mxCell id="6I6sj6lgImSwd84NHeRp-21" value="init_getpp" style="rounded=1;whiteSpace=wrap;html=1;fillColor=#ffe6cc;strokeColor=#d79b00;fontColor=#000000;" parent="1" vertex="1">
          <mxGeometry x="1334.0400000000002" y="895" width="72.5" height="30" as="geometry" />
        </mxCell>
        <mxCell id="6I6sj6lgImSwd84NHeRp-22" value="init_eroutercfg" style="rounded=1;whiteSpace=wrap;html=1;fillColor=#ffe6cc;strokeColor=#d79b00;fontColor=#000000;" parent="1" vertex="1">
          <mxGeometry x="474.78" y="895" width="95" height="20" as="geometry" />
        </mxCell>
        <mxCell id="6I6sj6lgImSwd84NHeRp-23" value="STUBS Mv3" style="rounded=0;whiteSpace=wrap;html=1;verticalAlign=top;fillColor=#ffe6cc;strokeColor=#d79b00;fontStyle=1;fontColor=#000000;" parent="1" vertex="1">
          <mxGeometry x="1283.8300000000002" y="1430" width="488.82" height="140" as="geometry" />
        </mxCell>
        <mxCell id="6I6sj6lgImSwd84NHeRp-25" value="log file rolling limits" style="rounded=1;whiteSpace=wrap;html=1;fillColor=#ffe6cc;strokeColor=#d79b00;fontColor=#000000;" parent="1" vertex="1">
          <mxGeometry x="700.15" y="725" width="125" height="30" as="geometry" />
        </mxCell>
        <mxCell id="6I6sj6lgImSwd84NHeRp-26" value="&lt;div&gt;debug patches&lt;br&gt;&lt;/div&gt;&lt;div&gt;&lt;br&gt;&lt;/div&gt;sysevent&amp;nbsp;&lt;div&gt;rbus&lt;/div&gt;&lt;div&gt;syscfg&lt;/div&gt;" style="rounded=1;whiteSpace=wrap;html=1;fillColor=#ffe6cc;strokeColor=#d79b00;fontColor=#000000;" parent="1" vertex="1">
          <mxGeometry x="1792.65" y="1060.74" width="140" height="115" as="geometry" />
        </mxCell>
        <mxCell id="6I6sj6lgImSwd84NHeRp-27" value="bind nvram" style="rounded=1;whiteSpace=wrap;html=1;fillColor=#ffe6cc;strokeColor=#d79b00;fontColor=#000000;" parent="1" vertex="1">
          <mxGeometry x="390.15" y="725" width="85" height="30" as="geometry" />
        </mxCell>
        <mxCell id="6I6sj6lgImSwd84NHeRp-28" value="bind mount helper" style="rounded=1;whiteSpace=wrap;html=1;fillColor=#ffe6cc;strokeColor=#d79b00;fontColor=#000000;verticalAlign=middle;" parent="1" vertex="1">
          <mxGeometry x="1334.0400000000002" y="945" width="117.5" height="30" as="geometry" />
        </mxCell>
        <mxCell id="6I6sj6lgImSwd84NHeRp-30" value="Mv2plus" style="rounded=0;whiteSpace=wrap;html=1;verticalAlign=top;fillColor=#dae8fc;strokeColor=#6c8ebf;fontStyle=1;strokeWidth=2;fontColor=#000000;" parent="1" vertex="1">
          <mxGeometry x="870" y="-240" width="410" height="110" as="geometry" />
        </mxCell>
        <mxCell id="6I6sj6lgImSwd84NHeRp-31" value="Mv1" style="rounded=0;whiteSpace=wrap;html=1;verticalAlign=top;fillColor=#d5e8d4;strokeColor=#8bb971;fontStyle=1;strokeWidth=2;fontColor=#000000;" parent="1" vertex="1">
          <mxGeometry x="340" y="-615" width="410" height="255" as="geometry" />
        </mxCell>
        <mxCell id="6I6sj6lgImSwd84NHeRp-32" value="Mv2plus" style="rounded=0;whiteSpace=wrap;html=1;verticalAlign=top;fillColor=#d5e8d4;strokeColor=#8bb971;fontStyle=1;strokeWidth=2;fontColor=#000000;" parent="1" vertex="1">
          <mxGeometry x="765" y="-615" width="425" height="255" as="geometry" />
        </mxCell>
        <mxCell id="6I6sj6lgImSwd84NHeRp-33" value="Mv3" style="rounded=0;whiteSpace=wrap;html=1;verticalAlign=top;fillColor=#d5e8d4;strokeColor=#82b366;fontStyle=1;strokeWidth=2;fontColor=#000000;" parent="1" vertex="1">
          <mxGeometry x="1205" y="-615" width="565" height="255" as="geometry" />
        </mxCell>
        <mxCell id="6I6sj6lgImSwd84NHeRp-34" value="" style="rounded=0;whiteSpace=wrap;html=1;verticalAlign=top;fillColor=#dae8fc;strokeColor=#6c8ebf;fontStyle=1;strokeWidth=2;fontColor=#000000;" parent="1" vertex="1">
          <mxGeometry x="335" y="-340" width="1435" height="90" as="geometry" />
        </mxCell>
        <mxCell id="6I6sj6lgImSwd84NHeRp-35" value="Mv3" style="rounded=0;whiteSpace=wrap;html=1;verticalAlign=top;fillColor=#dae8fc;strokeColor=#6c8ebf;fontStyle=1;strokeWidth=2;fontColor=#000000;" parent="1" vertex="1">
          <mxGeometry x="1290" y="-240" width="480" height="110" as="geometry" />
        </mxCell>
        <mxCell id="6I6sj6lgImSwd84NHeRp-37" value="nvram" style="rounded=1;whiteSpace=wrap;html=1;fontColor=#000000;" parent="1" vertex="1">
          <mxGeometry x="32.65" y="1505" width="120" height="60" as="geometry" />
        </mxCell>
        <mxCell id="6I6sj6lgImSwd84NHeRp-38" value="&lt;div&gt;sysevent&lt;/div&gt;" style="rounded=1;whiteSpace=wrap;html=1;verticalAlign=middle;fillColor=#dae8fc;strokeColor=#6c8ebf;fontColor=#000000;" parent="1" vertex="1">
          <mxGeometry x="590" y="-300" width="75" height="30" as="geometry" />
        </mxCell>
        <mxCell id="6I6sj6lgImSwd84NHeRp-39" value="&lt;div&gt;&lt;span style=&quot;background-color: initial;&quot;&gt;crond&lt;/span&gt;&lt;br&gt;&lt;/div&gt;" style="rounded=1;whiteSpace=wrap;html=1;verticalAlign=middle;fillColor=#f5f5f5;strokeColor=#666666;fontColor=#000000;" parent="1" vertex="1">
          <mxGeometry x="585" y="-105" width="75" height="30" as="geometry" />
        </mxCell>
        <mxCell id="6I6sj6lgImSwd84NHeRp-40" value="&lt;div&gt;rbus&lt;/div&gt;" style="rounded=1;whiteSpace=wrap;html=1;verticalAlign=middle;fillColor=#d5e8d4;strokeColor=#82b366;" parent="1" vertex="1">
          <mxGeometry x="387.5" y="-700" width="42.5" height="30" as="geometry" />
        </mxCell>
        <mxCell id="6I6sj6lgImSwd84NHeRp-41" value="&lt;div&gt;&lt;span style=&quot;background-color: initial;&quot;&gt;syslogd&lt;/span&gt;&lt;br&gt;&lt;/div&gt;" style="rounded=1;whiteSpace=wrap;html=1;verticalAlign=middle;fillColor=#f5f5f5;strokeColor=#666666;fontColor=#000000;" parent="1" vertex="1">
          <mxGeometry x="745" y="-105" width="60" height="30" as="geometry" />
        </mxCell>
        <mxCell id="6I6sj6lgImSwd84NHeRp-42" value="VlanManager" style="rounded=1;whiteSpace=wrap;html=1;fillColor=#d5e8d4;strokeColor=#8bb971;fontColor=#000000;" parent="1" vertex="1">
          <mxGeometry x="1225" y="-565" width="120" height="30" as="geometry" />
        </mxCell>
        <mxCell id="6I6sj6lgImSwd84NHeRp-43" value="&lt;strike&gt;CcspWifiSsp&lt;/strike&gt;" style="rounded=1;whiteSpace=wrap;html=1;fillColor=#ffe6cc;strokeColor=#d79b00;fontColor=#000000;" parent="1" vertex="1">
          <mxGeometry x="1225" y="-525" width="120" height="30" as="geometry" />
        </mxCell>
        <mxCell id="6I6sj6lgImSwd84NHeRp-44" value="CcspEthAgent" style="rounded=1;whiteSpace=wrap;html=1;fillColor=#d5e8d4;strokeColor=#8bb971;fontColor=#000000;" parent="1" vertex="1">
          <mxGeometry x="1225" y="-435" width="120" height="30" as="geometry" />
        </mxCell>
        <mxCell id="6I6sj6lgImSwd84NHeRp-45" value="wanmanager" style="rounded=1;whiteSpace=wrap;html=1;fillColor=#d5e8d4;strokeColor=#8bb971;fontColor=#000000;" parent="1" vertex="1">
          <mxGeometry x="1225" y="-475" width="120" height="30" as="geometry" />
        </mxCell>
        <mxCell id="6I6sj6lgImSwd84NHeRp-46" value="GponManager" style="rounded=1;whiteSpace=wrap;html=1;fillColor=#d5e8d4;strokeColor=#8bb971;fontColor=#000000;" parent="1" vertex="1">
          <mxGeometry x="1405" y="-565" width="120" height="30" as="geometry" />
        </mxCell>
        <mxCell id="6I6sj6lgImSwd84NHeRp-47" value="fwupgrademanager" style="rounded=1;whiteSpace=wrap;html=1;fillColor=#d5e8d4;strokeColor=#8bb971;fontColor=#000000;" parent="1" vertex="1">
          <mxGeometry x="1405" y="-525" width="120" height="30" as="geometry" />
        </mxCell>
        <mxCell id="6I6sj6lgImSwd84NHeRp-48" value="CcspTandDSsp" style="rounded=1;whiteSpace=wrap;html=1;fillColor=#d5e8d4;strokeColor=#8bb971;fontColor=#000000;" parent="1" vertex="1">
          <mxGeometry x="1405" y="-475" width="120" height="30" as="geometry" />
        </mxCell>
        <mxCell id="6I6sj6lgImSwd84NHeRp-49" value="CcspLMLite" style="rounded=1;whiteSpace=wrap;html=1;fillColor=#d5e8d4;strokeColor=#8bb971;fontColor=#000000;" parent="1" vertex="1">
          <mxGeometry x="1405" y="-435" width="120" height="30" as="geometry" />
        </mxCell>
        <mxCell id="6I6sj6lgImSwd84NHeRp-50" value="CcspTr069PaSsp" style="rounded=1;whiteSpace=wrap;html=1;fillColor=#d5e8d4;strokeColor=#8bb971;fontColor=#000000;" parent="1" vertex="1">
          <mxGeometry x="750" y="-670" width="120" height="30" as="geometry" />
        </mxCell>
        <mxCell id="6I6sj6lgImSwd84NHeRp-52" value="&lt;div&gt;&lt;span style=&quot;background-color: initial;&quot;&gt;mcproxy&lt;/span&gt;&lt;br&gt;&lt;/div&gt;" style="rounded=1;whiteSpace=wrap;html=1;verticalAlign=middle;fillColor=#f5f5f5;strokeColor=#666666;fontColor=#000000;" parent="1" vertex="1">
          <mxGeometry x="585" y="-65" width="75" height="30" as="geometry" />
        </mxCell>
        <mxCell id="6I6sj6lgImSwd84NHeRp-53" value="&lt;div&gt;&lt;span style=&quot;background-color: initial;&quot;&gt;iptables&lt;/span&gt;&lt;br&gt;&lt;/div&gt;" style="rounded=1;whiteSpace=wrap;html=1;verticalAlign=middle;fillColor=#f5f5f5;strokeColor=#666666;fontColor=#000000;" parent="1" vertex="1">
          <mxGeometry x="670" y="-105" width="65" height="30" as="geometry" />
        </mxCell>
        <mxCell id="6I6sj6lgImSwd84NHeRp-54" value="&lt;div&gt;&lt;span style=&quot;background-color: initial;&quot;&gt;lighttpd jse&lt;/span&gt;&lt;br&gt;&lt;/div&gt;" style="rounded=1;whiteSpace=wrap;html=1;verticalAlign=middle;fillColor=#f5f5f5;strokeColor=#666666;fontColor=#000000;" parent="1" vertex="1">
          <mxGeometry x="995" y="-105" width="110" height="30" as="geometry" />
        </mxCell>
        <mxCell id="6I6sj6lgImSwd84NHeRp-56" value="&lt;div&gt;selfheal.sh&lt;/div&gt;" style="rounded=1;whiteSpace=wrap;html=1;verticalAlign=middle;fillColor=#dae8fc;strokeColor=#6c8ebf;fontColor=#000000;" parent="1" vertex="1">
          <mxGeometry x="1035" y="-300" width="110" height="30" as="geometry" />
        </mxCell>
        <mxCell id="6I6sj6lgImSwd84NHeRp-57" value="&lt;div&gt;telemetry2_0&lt;/div&gt;" style="rounded=1;whiteSpace=wrap;html=1;verticalAlign=middle;fillColor=#dae8fc;strokeColor=#6c8ebf;fontColor=#000000;" parent="1" vertex="1">
          <mxGeometry x="1195" y="-300" width="110" height="30" as="geometry" />
        </mxCell>
        <mxCell id="6I6sj6lgImSwd84NHeRp-58" value="" style="rounded=0;whiteSpace=wrap;html=1;fillColor=#f5f5f5;strokeColor=#666666;fontColor=#000000;" parent="1" vertex="1">
          <mxGeometry x="1155" y="-120" width="615" height="95" as="geometry" />
        </mxCell>
        <mxCell id="6I6sj6lgImSwd84NHeRp-59" value="profileHunter" style="rounded=1;whiteSpace=wrap;html=1;fillColor=#f8cecc;strokeColor=#b85450;fontColor=#000000;" parent="1" vertex="1">
          <mxGeometry x="1605" y="-435" width="120" height="30" as="geometry" />
        </mxCell>
        <mxCell id="6I6sj6lgImSwd84NHeRp-60" value="set_customer_id_pp" style="rounded=1;whiteSpace=wrap;html=1;fillColor=#ffe6cc;strokeColor=#d79b00;fontColor=#000000;" parent="1" vertex="1">
          <mxGeometry x="1470.1500000000003" y="1462.5" width="135" height="30" as="geometry" />
        </mxCell>
        <mxCell id="6I6sj6lgImSwd84NHeRp-62" value="&lt;div&gt;opensync&lt;/div&gt;" style="rounded=1;whiteSpace=wrap;html=1;verticalAlign=middle;fillColor=#f5f5f5;strokeColor=#666666;fontColor=#000000;" parent="1" vertex="1">
          <mxGeometry x="1205" y="-105" width="110" height="30" as="geometry" />
        </mxCell>
        <mxCell id="6I6sj6lgImSwd84NHeRp-63" value="STUBS" style="rounded=0;whiteSpace=wrap;html=1;verticalAlign=top;fillColor=#ffe6cc;strokeColor=#d79b00;fontStyle=1;fontColor=#000000;" parent="1" vertex="1">
          <mxGeometry x="1662.65" y="650" width="110" height="155" as="geometry" />
        </mxCell>
        <mxCell id="6I6sj6lgImSwd84NHeRp-64" value="wlanconfig&lt;div&gt;iwconfig&lt;/div&gt;&lt;div&gt;hostapd_cli&lt;/div&gt;&lt;div&gt;wifi_api&lt;/div&gt;" style="rounded=1;whiteSpace=wrap;html=1;fillColor=#ffe6cc;strokeColor=#d79b00;fontColor=#000000;" parent="1" vertex="1">
          <mxGeometry x="1672.65" y="702.5" width="75" height="75" as="geometry" />
        </mxCell>
        <mxCell id="6I6sj6lgImSwd84NHeRp-66" value="STUBS Mv2plus" style="rounded=0;whiteSpace=wrap;html=1;verticalAlign=top;fillColor=#ffe6cc;strokeColor=#d79b00;fontStyle=1;fontColor=#000000;" parent="1" vertex="1">
          <mxGeometry x="852.65" y="1430" width="420" height="140" as="geometry" />
        </mxCell>
        <mxCell id="6I6sj6lgImSwd84NHeRp-67" value="&lt;div&gt;mdmfiledecode&lt;/div&gt;" style="rounded=1;whiteSpace=wrap;html=1;fillColor=#ffe6cc;strokeColor=#d79b00;fontColor=#000000;" parent="1" vertex="1">
          <mxGeometry x="1112.65" y="1525" width="98.67" height="30" as="geometry" />
        </mxCell>
        <mxCell id="6I6sj6lgImSwd84NHeRp-68" value="&lt;div&gt;&lt;span style=&quot;background-color: initial;&quot;&gt;utopia_init.sh&lt;/span&gt;&lt;br&gt;&lt;/div&gt;" style="rounded=1;whiteSpace=wrap;html=1;verticalAlign=middle;fillColor=#dae8fc;strokeColor=#6c8ebf;fontColor=#000000;" parent="1" vertex="1">
          <mxGeometry x="380" y="-310" width="110" height="30" as="geometry" />
        </mxCell>
        <mxCell id="6I6sj6lgImSwd84NHeRp-72" value="configure ssh" style="rounded=1;whiteSpace=wrap;html=1;fillColor=#ffe6cc;strokeColor=#d79b00;fontColor=#000000;" parent="1" vertex="1">
          <mxGeometry x="602.65" y="725" width="80" height="30" as="geometry" />
        </mxCell>
        <mxCell id="6I6sj6lgImSwd84NHeRp-74" value="MV1-ATOM" style="rounded=0;whiteSpace=wrap;html=1;verticalAlign=top;fillColor=#e1d5e7;strokeColor=#9673a6;fontStyle=1;strokeWidth=2;align=left;fontColor=#000000;" parent="1" vertex="1">
          <mxGeometry x="345" y="-840" width="375" height="50" as="geometry" />
        </mxCell>
        <mxCell id="AQ5LlWUHZtdL1F9q4RZN-1" value="DHCPV4C&lt;div&gt;&lt;h2 id=&quot;link160&quot;&gt;&lt;font style=&quot;font-size: 10px; font-weight: normal;&quot;&gt;libapi_dhcpv4c.so.0&lt;/font&gt;&lt;/h2&gt;&lt;/div&gt;" style="rounded=1;whiteSpace=wrap;html=1;fillColor=#fff2cc;strokeColor=#d6b656;fontColor=#000000;fontStyle=0;verticalAlign=top;strokeWidth=2;" parent="1" vertex="1">
          <mxGeometry x="485" y="20" width="105" height="240" as="geometry" />
        </mxCell>
        <mxCell id="AQ5LlWUHZtdL1F9q4RZN-2" value="ETHSW&lt;div&gt;&lt;br&gt;&lt;/div&gt;&lt;div&gt;&lt;h2 id=&quot;link192&quot;&gt;&lt;span style=&quot;font-weight: normal;&quot;&gt;&lt;font style=&quot;font-size: 10px;&quot;&gt;libhal_ethsw.so.0&lt;/font&gt;&lt;/span&gt;&lt;/h2&gt;&lt;/div&gt;" style="rounded=1;whiteSpace=wrap;html=1;fillColor=#fff2cc;strokeColor=#d6b656;fontColor=#000000;fontStyle=0;verticalAlign=top;strokeWidth=2;" parent="1" vertex="1">
          <mxGeometry x="610" y="20" width="90" height="240" as="geometry" />
        </mxCell>
        <mxCell id="AQ5LlWUHZtdL1F9q4RZN-4" value="MSO_MGMT&lt;div style=&quot;font-size: 10px;&quot;&gt;&lt;font style=&quot;font-size: 10px;&quot;&gt;&lt;br&gt;&lt;/font&gt;&lt;/div&gt;&lt;div style=&quot;font-size: 10px;&quot;&gt;&lt;h2 style=&quot;&quot; id=&quot;link193&quot;&gt;&lt;font style=&quot;font-weight: normal; font-size: 10px;&quot;&gt;libhal_msomgmt.so.0&lt;/font&gt;&lt;/h2&gt;&lt;/div&gt;" style="rounded=1;whiteSpace=wrap;html=1;fillColor=#fff2cc;strokeColor=#d6b656;fontColor=#000000;fontStyle=0;verticalAlign=top;strokeWidth=2;" parent="1" vertex="1">
          <mxGeometry x="765" y="21.27" width="165" height="238.73" as="geometry" />
        </mxCell>
        <mxCell id="AQ5LlWUHZtdL1F9q4RZN-5" value="INTERFACE" style="rounded=1;whiteSpace=wrap;html=1;fillColor=#fff2cc;strokeColor=#d6b656;strokeWidth=3;fontColor=#000000;fontStyle=0" parent="1" vertex="1">
          <mxGeometry x="1635" y="20" width="90" height="30" as="geometry" />
        </mxCell>
        <mxCell id="AQ5LlWUHZtdL1F9q4RZN-7" value="HAL-&lt;br&gt;GWPROVAPPABS-&lt;br&gt;GENERIC" style="rounded=1;whiteSpace=wrap;html=1;fillColor=#fff2cc;strokeColor=#d6b656;fontColor=#000000;" parent="1" vertex="1">
          <mxGeometry x="452.5" y="380.47" width="120" height="60" as="geometry" />
        </mxCell>
        <mxCell id="AQ5LlWUHZtdL1F9q4RZN-9" value="FWUPGRADE" style="rounded=1;whiteSpace=wrap;html=1;fillColor=#fff2cc;strokeColor=#d6b656;fontColor=#000000;fontStyle=0" parent="1" vertex="1">
          <mxGeometry x="1625" y="180" width="90" height="30" as="geometry" />
        </mxCell>
        <mxCell id="AQ5LlWUHZtdL1F9q4RZN-10" value="MOCA" style="rounded=1;whiteSpace=wrap;html=1;fillColor=#fff2cc;strokeColor=#d6b656;fontColor=#000000;fontStyle=0" parent="1" vertex="1">
          <mxGeometry x="1625" y="220" width="90" height="30" as="geometry" />
        </mxCell>
        <mxCell id="AQ5LlWUHZtdL1F9q4RZN-11" value="VlanManager" style="rounded=1;whiteSpace=wrap;html=1;fillColor=#d5e8d4;strokeColor=#8bb971;fontColor=#000000;" parent="1" vertex="1">
          <mxGeometry x="830" y="-572.5" width="120" height="30" as="geometry" />
        </mxCell>
        <mxCell id="AQ5LlWUHZtdL1F9q4RZN-12" value="&lt;strike&gt;CcspWifiSsp&lt;/strike&gt;" style="rounded=1;whiteSpace=wrap;html=1;fillColor=#ffe6cc;strokeColor=#d79b00;fontColor=#000000;" parent="1" vertex="1">
          <mxGeometry x="830" y="-532.5" width="120" height="30" as="geometry" />
        </mxCell>
        <mxCell id="AQ5LlWUHZtdL1F9q4RZN-13" value="CcspEthAgent" style="rounded=1;whiteSpace=wrap;html=1;fillColor=#d5e8d4;strokeColor=#8bb971;fontColor=#000000;" parent="1" vertex="1">
          <mxGeometry x="830" y="-442.5" width="120" height="30" as="geometry" />
        </mxCell>
        <mxCell id="AQ5LlWUHZtdL1F9q4RZN-14" value="wanmanager" style="rounded=1;whiteSpace=wrap;html=1;fillColor=#d5e8d4;strokeColor=#8bb971;fontColor=#000000;" parent="1" vertex="1">
          <mxGeometry x="830" y="-482.5" width="120" height="30" as="geometry" />
        </mxCell>
        <mxCell id="AQ5LlWUHZtdL1F9q4RZN-15" value="GponManager" style="rounded=1;whiteSpace=wrap;html=1;fillColor=#d5e8d4;strokeColor=#8bb971;fontColor=#000000;" parent="1" vertex="1">
          <mxGeometry x="1010" y="-572.5" width="120" height="30" as="geometry" />
        </mxCell>
        <mxCell id="AQ5LlWUHZtdL1F9q4RZN-16" value="fwupgrademanager" style="rounded=1;whiteSpace=wrap;html=1;fillColor=#d5e8d4;strokeColor=#8bb971;fontColor=#000000;" parent="1" vertex="1">
          <mxGeometry x="1010" y="-532.5" width="120" height="30" as="geometry" />
        </mxCell>
        <mxCell id="AQ5LlWUHZtdL1F9q4RZN-17" value="CcspTandDSsp" style="rounded=1;whiteSpace=wrap;html=1;fillColor=#d5e8d4;strokeColor=#8bb971;fontColor=#000000;" parent="1" vertex="1">
          <mxGeometry x="1010" y="-482.5" width="120" height="30" as="geometry" />
        </mxCell>
        <mxCell id="AQ5LlWUHZtdL1F9q4RZN-18" value="CcspLMLite" style="rounded=1;whiteSpace=wrap;html=1;fillColor=#d5e8d4;strokeColor=#8bb971;fontColor=#000000;" parent="1" vertex="1">
          <mxGeometry x="1010" y="-442.5" width="120" height="30" as="geometry" />
        </mxCell>
        <mxCell id="AQ5LlWUHZtdL1F9q4RZN-19" value="notify_comp" style="rounded=1;whiteSpace=wrap;html=1;fillColor=#d5e8d4;strokeColor=#8bb971;fontColor=#000000;" parent="1" vertex="1">
          <mxGeometry x="610" y="-670" width="120" height="30" as="geometry" />
        </mxCell>
        <mxCell id="AQ5LlWUHZtdL1F9q4RZN-20" value="CcspCMAgent" style="rounded=1;whiteSpace=wrap;html=1;fillColor=#d5e8d4;strokeColor=#8bb971;fontColor=#000000;" parent="1" vertex="1">
          <mxGeometry x="425" y="-535" width="120" height="30" as="geometry" />
        </mxCell>
        <mxCell id="AQ5LlWUHZtdL1F9q4RZN-21" value="CcspMTAgent" style="rounded=1;whiteSpace=wrap;html=1;fillColor=#d5e8d4;strokeColor=#8bb971;fontColor=#000000;" parent="1" vertex="1">
          <mxGeometry x="425" y="-480" width="120" height="30" as="geometry" />
        </mxCell>
        <mxCell id="AQ5LlWUHZtdL1F9q4RZN-22" value="CcspEthgent" style="rounded=1;whiteSpace=wrap;html=1;fillColor=#d5e8d4;strokeColor=#8bb971;fontColor=#000000;" parent="1" vertex="1">
          <mxGeometry x="567.5" y="-532.5" width="120" height="30" as="geometry" />
        </mxCell>
        <mxCell id="AQ5LlWUHZtdL1F9q4RZN-23" value="CcspLMLite" style="rounded=1;whiteSpace=wrap;html=1;fillColor=#d5e8d4;strokeColor=#8bb971;fontColor=#000000;" parent="1" vertex="1">
          <mxGeometry x="565" y="-480" width="120" height="30" as="geometry" />
        </mxCell>
        <mxCell id="AQ5LlWUHZtdL1F9q4RZN-24" value="CcspTandDSsp" style="rounded=1;whiteSpace=wrap;html=1;fillColor=#d5e8d4;strokeColor=#8bb971;fontColor=#000000;" parent="1" vertex="1">
          <mxGeometry x="750" y="-710" width="120" height="30" as="geometry" />
        </mxCell>
        <mxCell id="AQ5LlWUHZtdL1F9q4RZN-27" value="CCSP" style="rounded=0;whiteSpace=wrap;html=1;fillColor=#d5e8d4;strokeColor=#82b366;fontSize=19;rotation=-90;fontColor=#000000;" parent="1" vertex="1">
          <mxGeometry x="104.64" y="-577.52" width="365" height="60" as="geometry" />
        </mxCell>
        <mxCell id="AQ5LlWUHZtdL1F9q4RZN-28" value="UTOPIA" style="rounded=0;whiteSpace=wrap;html=1;fillColor=#dae8fc;strokeColor=#6c8ebf;fontSize=19;rotation=-90;fontColor=#000000;" parent="1" vertex="1">
          <mxGeometry x="184.3" y="-265.7" width="205.69" height="60" as="geometry" />
        </mxCell>
        <mxCell id="AQ5LlWUHZtdL1F9q4RZN-29" value="HAL-&lt;div&gt;generic&lt;/div&gt;" style="rounded=0;whiteSpace=wrap;html=1;fillColor=#fff2cc;strokeColor=#d6b656;fontSize=19;rotation=-90;fontColor=#000000;fontStyle=0" parent="1" vertex="1">
          <mxGeometry x="116.1" y="136.19" width="330.49" height="60" as="geometry" />
        </mxCell>
        <mxCell id="AQ5LlWUHZtdL1F9q4RZN-30" value="META-LXD-MVx" style="rounded=0;whiteSpace=wrap;html=1;fillColor=#ffe6cc;strokeColor=#d79b00;fontSize=19;rotation=-90;fontColor=#000000;" parent="1" vertex="1">
          <mxGeometry x="-95" y="1162" width="753.9" height="59.6" as="geometry" />
        </mxCell>
        <mxCell id="AQ5LlWUHZtdL1F9q4RZN-31" value="CcspWifiSsp" style="rounded=1;whiteSpace=wrap;html=1;fillColor=#d5e8d4;strokeColor=#8bb971;fontColor=#000000;" parent="1" vertex="1">
          <mxGeometry x="505" y="-830" width="90" height="30" as="geometry" />
        </mxCell>
        <mxCell id="AQ5LlWUHZtdL1F9q4RZN-32" value="&lt;div&gt;ovs&lt;/div&gt;" style="rounded=1;whiteSpace=wrap;html=1;verticalAlign=middle;fillColor=#f5f5f5;strokeColor=#666666;fontColor=#000000;" parent="1" vertex="1">
          <mxGeometry x="1205" y="-65" width="110" height="30" as="geometry" />
        </mxCell>
        <mxCell id="AQ5LlWUHZtdL1F9q4RZN-35" value="create erouter0" style="rounded=1;whiteSpace=wrap;html=1;fillColor=#ffe6cc;strokeColor=#d79b00;fontColor=#000000;" parent="1" vertex="1">
          <mxGeometry x="916.4" y="894.9999999999999" width="100" height="30" as="geometry" />
        </mxCell>
        <mxCell id="AQ5LlWUHZtdL1F9q4RZN-37" value="Mv1 IMAGE remove" style="rounded=0;whiteSpace=wrap;html=1;verticalAlign=top;fillColor=#ffe6cc;strokeColor=#d79b00;fontStyle=1;fontColor=#000000;" parent="1" vertex="1">
          <mxGeometry x="335.29" y="1285" width="507.5" height="135" as="geometry" />
        </mxCell>
        <mxCell id="AQ5LlWUHZtdL1F9q4RZN-38" value="rdk monitors&lt;div&gt;&lt;span style=&quot;font-weight: normal;&quot;&gt;&lt;br&gt;&lt;/span&gt;&lt;/div&gt;&lt;div&gt;&lt;span style=&quot;font-weight: normal;&quot;&gt;rssfree&lt;/span&gt;&lt;/div&gt;&lt;div&gt;&lt;span style=&quot;font-weight: normal;&quot;&gt;syscfg&lt;/span&gt;&lt;/div&gt;&lt;div&gt;&lt;span style=&quot;font-weight: normal;&quot;&gt;sysevent&lt;/span&gt;&lt;/div&gt;&lt;div&gt;&lt;span style=&quot;font-weight: normal;&quot;&gt;rbus&lt;/span&gt;&lt;/div&gt;&lt;div&gt;&lt;span style=&quot;font-weight: normal;&quot;&gt;&lt;br&gt;&lt;/span&gt;&lt;/div&gt;&lt;div&gt;&lt;span style=&quot;font-weight: normal;&quot;&gt;&lt;br&gt;&lt;/span&gt;&lt;/div&gt;&lt;div&gt;&lt;span style=&quot;font-weight: normal;&quot;&gt;interfaces&lt;/span&gt;&lt;/div&gt;&lt;div&gt;&lt;span style=&quot;font-weight: normal;&quot;&gt;pcap&lt;/span&gt;&lt;/div&gt;&lt;div&gt;&lt;span style=&quot;font-weight: normal;&quot;&gt;routes&lt;/span&gt;&lt;/div&gt;&lt;div&gt;&lt;span style=&quot;font-weight: normal;&quot;&gt;files&lt;/span&gt;&lt;/div&gt;" style="rounded=0;whiteSpace=wrap;html=1;verticalAlign=top;fillColor=#ffe6cc;strokeColor=#d79b00;fontStyle=1;fontColor=#000000;" parent="1" vertex="1">
          <mxGeometry x="1792.65" y="815" width="140" height="220" as="geometry" />
        </mxCell>
        <mxCell id="AQ5LlWUHZtdL1F9q4RZN-39" value="webpa&lt;div&gt;webconfig&lt;/div&gt;" style="rounded=1;whiteSpace=wrap;html=1;fillColor=#ffe6cc;strokeColor=#d79b00;fontColor=#000000;" parent="1" vertex="1">
          <mxGeometry x="1155" y="-700" width="65" height="30" as="geometry" />
        </mxCell>
        <mxCell id="AQ5LlWUHZtdL1F9q4RZN-40" value="usp-pa" style="rounded=1;whiteSpace=wrap;html=1;fillColor=#ffe6cc;strokeColor=#d79b00;fontColor=#000000;" parent="1" vertex="1">
          <mxGeometry x="1232.5" y="-700" width="55" height="30" as="geometry" />
        </mxCell>
        <mxCell id="AQ5LlWUHZtdL1F9q4RZN-41" value="rbus-proxy&lt;div&gt;rbus-filter&lt;/div&gt;" style="rounded=1;whiteSpace=wrap;html=1;fillColor=#ffe6cc;strokeColor=#d79b00;fontColor=#000000;" parent="1" vertex="1">
          <mxGeometry x="1297.5" y="-700" width="80" height="30" as="geometry" />
        </mxCell>
        <mxCell id="AQ5LlWUHZtdL1F9q4RZN-42" value="dac lcm" style="rounded=1;whiteSpace=wrap;html=1;fillColor=#ffe6cc;strokeColor=#d79b00;fontColor=#000000;" parent="1" vertex="1">
          <mxGeometry x="1400" y="-700" width="80" height="30" as="geometry" />
        </mxCell>
        <mxCell id="AQ5LlWUHZtdL1F9q4RZN-43" value="&lt;div&gt;&lt;span style=&quot;background-color: initial;&quot;&gt;ebtables&lt;/span&gt;&lt;br&gt;&lt;/div&gt;" style="rounded=1;whiteSpace=wrap;html=1;verticalAlign=middle;fillColor=#f5f5f5;strokeColor=#666666;fontColor=#000000;" parent="1" vertex="1">
          <mxGeometry x="670" y="-65" width="65" height="30" as="geometry" />
        </mxCell>
        <mxCell id="AQ5LlWUHZtdL1F9q4RZN-44" value="&lt;div&gt;syscfg&lt;/div&gt;" style="rounded=1;whiteSpace=wrap;html=1;verticalAlign=middle;fillColor=#dae8fc;strokeColor=#6c8ebf;fontColor=#000000;" parent="1" vertex="1">
          <mxGeometry x="590" y="-330" width="75" height="30" as="geometry" />
        </mxCell>
        <mxCell id="AQ5LlWUHZtdL1F9q4RZN-45" value="CcspMeshAgent" style="rounded=1;whiteSpace=wrap;html=1;fillColor=#d5e8d4;strokeColor=#8bb971;fontColor=#000000;" parent="1" vertex="1">
          <mxGeometry x="602.5" y="-830" width="97.5" height="30" as="geometry" />
        </mxCell>
        <mxCell id="AQ5LlWUHZtdL1F9q4RZN-60" value="" style="rounded=0;whiteSpace=wrap;html=1;verticalAlign=top;fillColor=#fff2cc;strokeColor=#d6b656;fontStyle=0;fontColor=#000000;" parent="1" vertex="1">
          <mxGeometry x="332.64" y="460" width="1435" height="80" as="geometry" />
        </mxCell>
        <mxCell id="AQ5LlWUHZtdL1F9q4RZN-61" value="HAL-&lt;div&gt;Mv2plus&lt;/div&gt;" style="rounded=0;whiteSpace=wrap;html=1;fillColor=#fff2cc;strokeColor=#d6b656;fontSize=19;rotation=-90;fontColor=#000000;fontStyle=0" parent="1" vertex="1">
          <mxGeometry x="242.35999999999999" y="470.47" width="78.25" height="60" as="geometry" />
        </mxCell>
        <mxCell id="AQ5LlWUHZtdL1F9q4RZN-73" value="" style="rounded=0;whiteSpace=wrap;html=1;verticalAlign=top;fillColor=#fff2cc;strokeColor=#d6b656;fontStyle=0;fontColor=#000000;" parent="1" vertex="1">
          <mxGeometry x="332.64" y="550" width="1435" height="80" as="geometry" />
        </mxCell>
        <mxCell id="AQ5LlWUHZtdL1F9q4RZN-74" value="HAL-&lt;div&gt;Mv3&lt;/div&gt;" style="rounded=0;whiteSpace=wrap;html=1;fillColor=#fff2cc;strokeColor=#d6b656;fontSize=19;rotation=-90;fontColor=#000000;fontStyle=0" parent="1" vertex="1">
          <mxGeometry x="242.35999999999999" y="560.47" width="78.25" height="60" as="geometry" />
        </mxCell>
        <mxCell id="AQ5LlWUHZtdL1F9q4RZN-86" value="&lt;div&gt;hal-cm-broadcom/&amp;nbsp; &amp;nbsp; &amp;nbsp; &amp;nbsp; &amp;nbsp; &amp;nbsp;hal-ethsw-broadcom/&amp;nbsp; &amp;nbsp; &amp;nbsp; &amp;nbsp; hal-gwprovappabs-broadcom/ hal-moca-generic/&amp;nbsp; &amp;nbsp; &amp;nbsp; &amp;nbsp; &amp;nbsp; hal-mta-broadcom/&amp;nbsp; &amp;nbsp; &amp;nbsp; &amp;nbsp; &amp;nbsp; hal-util-broadcom/&lt;/div&gt;&lt;div&gt;hal-dhcpv4c-broadcom/&amp;nbsp; &amp;nbsp; &amp;nbsp; hal-fwupgrade-generic/&amp;nbsp; &amp;nbsp; &amp;nbsp;halinterface/&amp;nbsp; &amp;nbsp; &amp;nbsp; &amp;nbsp; &amp;nbsp; &amp;nbsp; &amp;nbsp; hal-mso-mgmt-broadcom/&amp;nbsp; &amp;nbsp; &amp;nbsp;hal-platform-broadcom/&amp;nbsp; &amp;nbsp; &amp;nbsp;hal-wifi-broadcom/&lt;/div&gt;" style="rounded=1;whiteSpace=wrap;html=1;fillColor=#fff2cc;strokeColor=#d6b656;fontColor=#000000;fontStyle=0" parent="1" vertex="1">
          <mxGeometry x="337.97" y="470.47" width="659.78" height="60" as="geometry" />
        </mxCell>
        <mxCell id="AQ5LlWUHZtdL1F9q4RZN-87" value="hal-cm-generic/&amp;nbsp; &amp;nbsp; &amp;nbsp; &amp;nbsp;hal-dhcpv4c-generic/&amp;nbsp; hal-ethsw-generic/&amp;nbsp; &amp;nbsp; hal-fwupgrade/&amp;nbsp; &amp;nbsp; &amp;nbsp; &amp;nbsp; hal-leds/&amp;nbsp; &amp;nbsp; &amp;nbsp; &amp;nbsp; &amp;nbsp; &amp;nbsp; &amp;nbsp;hal-mso-mgmt-generic/ hal-mta-generic/&amp;nbsp; &amp;nbsp; &amp;nbsp; hal-platform-generic/ hal-vlan-generic/&amp;nbsp; &amp;nbsp; &amp;nbsp;hal-wifi-broadcom/" style="rounded=1;whiteSpace=wrap;html=1;fillColor=#fff2cc;strokeColor=#d6b656;fontColor=#000000;fontStyle=0" parent="1" vertex="1">
          <mxGeometry x="345" y="560" width="659.78" height="60" as="geometry" />
        </mxCell>
        <mxCell id="AQ5LlWUHZtdL1F9q4RZN-88" value="&lt;strike&gt;CcspMTAgent&lt;/strike&gt;" style="rounded=1;whiteSpace=wrap;html=1;fillColor=#ffe6cc;strokeColor=#d79b00;fontColor=#000000;" parent="1" vertex="1">
          <mxGeometry x="830" y="-400" width="120" height="30" as="geometry" />
        </mxCell>
        <mxCell id="FoUPgF81jLXficwNEzEN-4" value="&lt;div&gt;&lt;span style=&quot;background-color: initial;&quot;&gt;S55utopiainit&lt;/span&gt;&lt;/div&gt;" style="rounded=1;whiteSpace=wrap;html=1;fillColor=#ffe6cc;strokeColor=#d79b00;fontStyle=0;strokeWidth=2;fontColor=#000000;" parent="1" vertex="1">
          <mxGeometry x="962.14" y="705" width="91.03" height="30" as="geometry" />
        </mxCell>
        <mxCell id="FoUPgF81jLXficwNEzEN-5" value="&lt;div&gt;&lt;span style=&quot;background-color: initial;&quot;&gt;S56cosastart&lt;/span&gt;&lt;br&gt;&lt;/div&gt;" style="rounded=1;whiteSpace=wrap;html=1;fillColor=#ffe6cc;strokeColor=#d79b00;fontStyle=0;strokeWidth=2;fontColor=#000000;" parent="1" vertex="1">
          <mxGeometry x="962.14" y="745" width="91.03" height="30" as="geometry" />
        </mxCell>
        <mxCell id="FoUPgF81jLXficwNEzEN-6" value="init_eroutercfg" style="rounded=1;whiteSpace=wrap;html=1;fillColor=#ffe6cc;strokeColor=#d79b00;fontColor=#000000;" parent="1" vertex="1">
          <mxGeometry x="919.0400000000001" y="995" width="95" height="30" as="geometry" />
        </mxCell>
        <mxCell id="FoUPgF81jLXficwNEzEN-8" value="configure home" style="rounded=1;whiteSpace=wrap;html=1;fillColor=#ffe6cc;strokeColor=#d79b00;fontColor=#000000;" parent="1" vertex="1">
          <mxGeometry x="487.65" y="725" width="101.03" height="30" as="geometry" />
        </mxCell>
        <mxCell id="FoUPgF81jLXficwNEzEN-9" value="create l2sd0" style="rounded=1;whiteSpace=wrap;html=1;fillColor=#ffe6cc;strokeColor=#d79b00;fontColor=#000000;" parent="1" vertex="1">
          <mxGeometry x="581.54" y="895" width="95" height="20" as="geometry" />
        </mxCell>
        <mxCell id="AQ5LlWUHZtdL1F9q4RZN-47" value="&lt;div style=&quot;font-weight: 700;&quot;&gt;&lt;span style=&quot;font-weight: normal;&quot;&gt;valgrind&lt;/span&gt;&lt;/div&gt;&lt;div style=&quot;font-weight: 700;&quot;&gt;&lt;span style=&quot;background-color: initial; font-weight: normal;&quot;&gt;gdb&amp;nbsp;&lt;/span&gt;&lt;span style=&quot;background-color: initial; font-weight: normal;&quot;&gt;gdbserver&lt;/span&gt;&lt;/div&gt;&lt;div style=&quot;font-weight: 700;&quot;&gt;&lt;span style=&quot;font-weight: normal; background-color: initial;&quot;&gt;oprofile&amp;nbsp;&lt;/span&gt;&lt;span style=&quot;font-weight: normal; background-color: initial;&quot;&gt;ltrace&lt;/span&gt;&lt;/div&gt;&lt;div style=&quot;font-weight: 700;&quot;&gt;&lt;span style=&quot;font-weight: normal;&quot;&gt;inotify-tools&lt;/span&gt;&lt;/div&gt;&lt;div style=&quot;font-weight: 700;&quot;&gt;&lt;span style=&quot;font-weight: normal;&quot;&gt;lsof file&lt;/span&gt;&lt;/div&gt;" style="rounded=1;whiteSpace=wrap;html=1;fillColor=#ffe6cc;strokeColor=#d79b00;fontColor=#000000;" parent="1" vertex="1">
          <mxGeometry x="1182.31" y="715.14" width="90" height="80" as="geometry" />
        </mxCell>
        <mxCell id="AQ5LlWUHZtdL1F9q4RZN-48" value="&lt;div style=&quot;font-weight: 700;&quot;&gt;&lt;div&gt;&lt;span style=&quot;background-color: initial; font-weight: normal;&quot;&gt;stress&amp;nbsp;&lt;/span&gt;&lt;span style=&quot;font-weight: normal; background-color: initial;&quot;&gt;bc&lt;/span&gt;&lt;/div&gt;&lt;/div&gt;" style="rounded=1;whiteSpace=wrap;html=1;fillColor=#ffe6cc;strokeColor=#d79b00;fontColor=#000000;" parent="1" vertex="1">
          <mxGeometry x="1375.19" y="747.64" width="72.5" height="20" as="geometry" />
        </mxCell>
        <mxCell id="AQ5LlWUHZtdL1F9q4RZN-49" value="&lt;div style=&quot;font-weight: 700;&quot;&gt;&lt;span style=&quot;font-weight: 400;&quot;&gt;iperf3&lt;/span&gt;&lt;br&gt;&lt;/div&gt;" style="rounded=1;whiteSpace=wrap;html=1;fillColor=#ffe6cc;strokeColor=#d79b00;fontColor=#000000;" parent="1" vertex="1">
          <mxGeometry x="1375.19" y="722.64" width="72.5" height="20" as="geometry" />
        </mxCell>
        <mxCell id="AQ5LlWUHZtdL1F9q4RZN-50" value="&lt;div style=&quot;font-weight: 700;&quot;&gt;&lt;div&gt;&lt;span style=&quot;font-weight: normal;&quot;&gt;ndisc6-ndisc6&lt;/span&gt;&lt;/div&gt;&lt;div&gt;&lt;span style=&quot;font-weight: normal;&quot;&gt;iproute2-ss&lt;/span&gt;&lt;/div&gt;&lt;div&gt;&lt;span style=&quot;font-weight: normal;&quot;&gt;iproute2-tc&lt;/span&gt;&lt;/div&gt;&lt;div&gt;&lt;span style=&quot;font-weight: normal;&quot;&gt;libcap&lt;/span&gt;&lt;/div&gt;&lt;/div&gt;" style="rounded=1;whiteSpace=wrap;html=1;fillColor=#ffe6cc;strokeColor=#d79b00;fontColor=#000000;" parent="1" vertex="1">
          <mxGeometry x="1282.69" y="727.64" width="80" height="65" as="geometry" />
        </mxCell>
        <mxCell id="FoUPgF81jLXficwNEzEN-16" value="rdk monitors" style="rounded=1;whiteSpace=wrap;html=1;fillColor=#ffe6cc;strokeColor=#d79b00;fontColor=#000000;" parent="1" vertex="1">
          <mxGeometry x="840.15" y="725" width="85" height="30" as="geometry" />
        </mxCell>
        <mxCell id="jkvp30yIvr0TwygAbil_-1" value="META-LXD" style="rounded=0;whiteSpace=wrap;html=1;fillColor=#ffe6cc;strokeColor=#d79b00;fontSize=19;rotation=-90;fontColor=#000000;" parent="1" vertex="1">
          <mxGeometry x="206.52" y="699.81" width="154.98" height="60" as="geometry" />
        </mxCell>
        <mxCell id="NseHv8oOHJ2EzqwxYGIs-1" value="DBG-&lt;div&gt;FILES&lt;/div&gt;" style="rounded=0;whiteSpace=wrap;html=1;verticalAlign=top;fillColor=#ffe6cc;strokeColor=#d79b00;fontStyle=1;fontColor=#000000;" parent="1" vertex="1">
          <mxGeometry x="1087.65" y="650" width="55" height="155" as="geometry" />
        </mxCell>
        <mxCell id="NseHv8oOHJ2EzqwxYGIs-3" value="&lt;div style=&quot;font-weight: 700;&quot;&gt;&lt;span style=&quot;font-weight: 400;&quot;&gt;rbus-proxy&lt;/span&gt;&lt;br&gt;&lt;/div&gt;&lt;div style=&quot;font-weight: 700;&quot;&gt;&lt;span style=&quot;font-weight: 400;&quot;&gt;rbus-filter&lt;/span&gt;&lt;/div&gt;" style="rounded=1;whiteSpace=wrap;html=1;fillColor=#ffe6cc;strokeColor=#d79b00;fontColor=#000000;" parent="1" vertex="1">
          <mxGeometry x="1560" y="660" width="80" height="35" as="geometry" />
        </mxCell>
        <mxCell id="NseHv8oOHJ2EzqwxYGIs-4" value="Mv1 IMAGE append" style="rounded=0;whiteSpace=wrap;html=1;verticalAlign=top;fillColor=#ffe6cc;strokeColor=#d79b00;fontStyle=1;fontColor=#000000;" parent="1" vertex="1">
          <mxGeometry x="335.15" y="1095" width="507.5" height="180" as="geometry" />
        </mxCell>
        <mxCell id="NseHv8oOHJ2EzqwxYGIs-6" value="Mv3 IMAGE append" style="rounded=0;whiteSpace=wrap;html=1;verticalAlign=top;fillColor=#ffe6cc;strokeColor=#d79b00;fontStyle=1;fontColor=#000000;" parent="1" vertex="1">
          <mxGeometry x="1282.65" y="1095" width="490" height="180" as="geometry" />
        </mxCell>
        <mxCell id="NseHv8oOHJ2EzqwxYGIs-7" value="ccsp-gwprovapp" style="rounded=1;whiteSpace=wrap;html=1;fillColor=#ffe6cc;strokeColor=#d79b00;fontColor=#000000;strokeWidth=2;" parent="1" vertex="1">
          <mxGeometry x="367.65" y="1125" width="95" height="30" as="geometry" />
        </mxCell>
        <mxCell id="NseHv8oOHJ2EzqwxYGIs-8" value="Mv2 IMAGE remove" style="rounded=0;whiteSpace=wrap;html=1;verticalAlign=top;fillColor=#ffe6cc;strokeColor=#d79b00;fontStyle=1;fontColor=#000000;" parent="1" vertex="1">
          <mxGeometry x="852.65" y="1285" width="420" height="135" as="geometry" />
        </mxCell>
        <mxCell id="NseHv8oOHJ2EzqwxYGIs-9" value="Mv3 IMAGE remove" style="rounded=0;whiteSpace=wrap;html=1;verticalAlign=top;fillColor=#ffe6cc;strokeColor=#d79b00;fontStyle=1;fontColor=#000000;" parent="1" vertex="1">
          <mxGeometry x="1282.65" y="1285" width="490" height="135" as="geometry" />
        </mxCell>
        <mxCell id="NseHv8oOHJ2EzqwxYGIs-10" value="&lt;div style=&quot;&quot;&gt;&lt;div style=&quot;&quot;&gt;&lt;div&gt;python3-pip&lt;/div&gt;&lt;div&gt;python3-scapy&lt;/div&gt;&lt;div&gt;python3-msgpack&lt;/div&gt;&lt;div&gt;python3-pyroute2&lt;/div&gt;&lt;div&gt;libpcap&lt;/div&gt;&lt;/div&gt;&lt;/div&gt;" style="rounded=1;whiteSpace=wrap;html=1;fillColor=#ffe6cc;strokeColor=#d79b00;fontColor=#000000;" parent="1" vertex="1">
          <mxGeometry x="1457.69" y="714.86" width="110" height="77.78" as="geometry" />
        </mxCell>
        <mxCell id="NseHv8oOHJ2EzqwxYGIs-11" value="&lt;div style=&quot;&quot;&gt;&lt;div style=&quot;&quot;&gt;&lt;div&gt;parodus&lt;/div&gt;&lt;div&gt;libparodus&lt;/div&gt;&lt;div&gt;parodus2ccsp&lt;/div&gt;&lt;/div&gt;&lt;/div&gt;" style="rounded=1;whiteSpace=wrap;html=1;fillColor=#ffe6cc;strokeColor=#d79b00;fontColor=#000000;" parent="1" vertex="1">
          <mxGeometry x="1157.65" y="1152.5" width="87.73" height="47.78" as="geometry" />
        </mxCell>
        <mxCell id="NseHv8oOHJ2EzqwxYGIs-12" value="&lt;div style=&quot;&quot;&gt;&lt;div style=&quot;&quot;&gt;&lt;div&gt;webcfg&lt;/div&gt;&lt;/div&gt;&lt;/div&gt;" style="rounded=1;whiteSpace=wrap;html=1;fillColor=#ffe6cc;strokeColor=#d79b00;fontColor=#000000;" parent="1" vertex="1">
          <mxGeometry x="1170" y="1206.8" width="55" height="20" as="geometry" />
        </mxCell>
        <mxCell id="NseHv8oOHJ2EzqwxYGIs-13" value="&lt;div style=&quot;&quot;&gt;&lt;div style=&quot;&quot;&gt;&lt;div&gt;broadcom-init-standbymonitor&lt;/div&gt;&lt;div&gt;event-logger&lt;/div&gt;&lt;div&gt;systemdint&amp;nbsp;&lt;span style=&quot;background-color: initial;&quot;&gt;systemdint-standbymonitor&lt;/span&gt;&lt;/div&gt;&lt;div&gt;&lt;span style=&quot;background-color: initial;&quot;&gt;mdmfileencode&amp;nbsp;&lt;/span&gt;&lt;span style=&quot;background-color: initial;&quot;&gt;mdmfiledecode&lt;/span&gt;&lt;/div&gt;&lt;/div&gt;&lt;/div&gt;" style="rounded=1;whiteSpace=wrap;html=1;fillColor=#ffe6cc;strokeColor=#d79b00;fontColor=#000000;" parent="1" vertex="1">
          <mxGeometry x="1004.78" y="1320" width="245.38" height="70" as="geometry" />
        </mxCell>
        <mxCell id="NseHv8oOHJ2EzqwxYGIs-14" value="&lt;div&gt;lxdint-utopiainit&lt;/div&gt;&lt;div&gt;lxdint-cosastart&lt;/div&gt;" style="rounded=1;whiteSpace=wrap;html=1;fillColor=#ffe6cc;strokeColor=#d79b00;fontColor=#000000;" parent="1" vertex="1">
          <mxGeometry x="715.15" y="1125" width="95" height="50" as="geometry" />
        </mxCell>
        <mxCell id="NseHv8oOHJ2EzqwxYGIs-15" value="&lt;div&gt;dummysdk&lt;/div&gt;" style="rounded=1;whiteSpace=wrap;html=1;fillColor=#ffe6cc;strokeColor=#d79b00;fontColor=#000000;" parent="1" vertex="1">
          <mxGeometry x="482.65" y="1125" width="87.5" height="30" as="geometry" />
        </mxCell>
        <mxCell id="AQ5LlWUHZtdL1F9q4RZN-91" value="&lt;div style=&quot;&quot;&gt;&lt;div style=&quot;&quot;&gt;&lt;div&gt;libnetfilter-conntrack conntrack-tools libnetfilter-cthelper libnetfilter-cttimeout libnfnetlink libmnl tcpdump coreutils strace ntp socat&lt;/div&gt;&lt;/div&gt;&lt;/div&gt;" style="rounded=1;whiteSpace=wrap;html=1;fillColor=#ffe6cc;strokeColor=#d79b00;fontColor=#000000;" parent="1" vertex="1">
          <mxGeometry x="1437.6899999999998" y="1126.68" width="130" height="120" as="geometry" />
        </mxCell>
        <mxCell id="NseHv8oOHJ2EzqwxYGIs-19" value="&lt;div style=&quot;&quot;&gt;&lt;div style=&quot;&quot;&gt;&lt;div&gt;iw&amp;nbsp;&lt;span style=&quot;background-color: initial;&quot;&gt;ebtables&lt;/span&gt;&lt;/div&gt;&lt;div&gt;tcpdump&lt;/div&gt;&lt;div&gt;ppp&amp;nbsp;&lt;span style=&quot;background-color: initial;&quot;&gt;rp-pppoe&lt;/span&gt;&lt;/div&gt;&lt;/div&gt;&lt;/div&gt;" style="rounded=1;whiteSpace=wrap;html=1;fillColor=#ffe6cc;strokeColor=#d79b00;fontColor=#000000;" parent="1" vertex="1">
          <mxGeometry x="1345" y="1187" width="80.15" height="54.73" as="geometry" />
        </mxCell>
        <mxCell id="NseHv8oOHJ2EzqwxYGIs-20" value="&lt;div style=&quot;&quot;&gt;&lt;div style=&quot;&quot;&gt;ccsp-profile-hunter&lt;br&gt;&lt;/div&gt;&lt;div style=&quot;&quot;&gt;migration-mng&lt;br&gt;&lt;/div&gt;&lt;/div&gt;" style="rounded=1;whiteSpace=wrap;html=1;fillColor=#ffe6cc;strokeColor=#d79b00;fontColor=#000000;" parent="1" vertex="1">
          <mxGeometry x="1289.9999999999998" y="1106.68" width="120" height="40" as="geometry" />
        </mxCell>
        <mxCell id="NseHv8oOHJ2EzqwxYGIs-22" value="dhcp on wan0" style="rounded=1;whiteSpace=wrap;html=1;fillColor=#ffe6cc;strokeColor=#d79b00;fontColor=#000000;" parent="1" vertex="1">
          <mxGeometry x="367.2799999999999" y="895" width="95" height="20" as="geometry" />
        </mxCell>
        <mxCell id="NseHv8oOHJ2EzqwxYGIs-23" value="start-daemon &lt;b&gt;gw_prov_utopia&lt;/b&gt;" style="rounded=1;whiteSpace=wrap;html=1;fillColor=#ffe6cc;strokeColor=#d79b00;fontColor=#000000;" parent="1" vertex="1">
          <mxGeometry x="367.28" y="945" width="185" height="20" as="geometry" />
        </mxCell>
        <mxCell id="NseHv8oOHJ2EzqwxYGIs-24" value="/etc/utopia/service.d/&lt;b&gt;service_cosa.sh cosa-start&lt;/b&gt;" style="rounded=1;whiteSpace=wrap;html=1;fillColor=#ffe6cc;strokeColor=#d79b00;fontColor=#000000;" parent="1" vertex="1">
          <mxGeometry x="367.28" y="985.67" width="284.26" height="20" as="geometry" />
        </mxCell>
        <mxCell id="NseHv8oOHJ2EzqwxYGIs-25" value="&lt;div&gt;/usr/ccsp/&lt;b&gt;cosa_start_rem.sh&lt;/b&gt;&lt;/div&gt;" style="rounded=1;whiteSpace=wrap;html=1;fillColor=#ffe6cc;strokeColor=#d79b00;fontColor=#000000;" parent="1" vertex="1">
          <mxGeometry x="367.28" y="1025" width="185" height="20" as="geometry" />
        </mxCell>
        <mxCell id="NseHv8oOHJ2EzqwxYGIs-26" value="scratchpadctl" style="rounded=1;whiteSpace=wrap;html=1;fillColor=#ffe6cc;strokeColor=#d79b00;fontColor=#000000;" parent="1" vertex="1">
          <mxGeometry x="1347.65" y="1462.5" width="85" height="30" as="geometry" />
        </mxCell>
        <mxCell id="NseHv8oOHJ2EzqwxYGIs-27" value="ledhandler" style="rounded=1;whiteSpace=wrap;html=1;fillColor=#ffe6cc;strokeColor=#d79b00;fontColor=#000000;" parent="1" vertex="1">
          <mxGeometry x="1177.27" y="1460" width="70" height="30" as="geometry" />
        </mxCell>
        <mxCell id="NseHv8oOHJ2EzqwxYGIs-29" value="&lt;div style=&quot;&quot;&gt;&lt;div style=&quot;&quot;&gt;&lt;div&gt;ledhandler&lt;/div&gt;&lt;/div&gt;&lt;/div&gt;" style="rounded=1;whiteSpace=wrap;html=1;fillColor=#ffe6cc;strokeColor=#d79b00;fontColor=#000000;" parent="1" vertex="1">
          <mxGeometry x="880.15" y="1135" width="90" height="25" as="geometry" />
        </mxCell>
        <mxCell id="NseHv8oOHJ2EzqwxYGIs-30" value="&lt;div&gt;&lt;span style=&quot;background-color: initial;&quot;&gt;S55utopiainit&lt;/span&gt;&lt;/div&gt;" style="rounded=1;whiteSpace=wrap;html=1;fillColor=#ffe6cc;strokeColor=#d79b00;fontStyle=0;strokeWidth=2;fontColor=#000000;" parent="1" vertex="1">
          <mxGeometry x="358.21" y="1299.9999999999998" width="91.03" height="30" as="geometry" />
        </mxCell>
        <mxCell id="NseHv8oOHJ2EzqwxYGIs-31" value="&lt;div&gt;&lt;span style=&quot;background-color: initial;&quot;&gt;S56cosastart&lt;/span&gt;&lt;br&gt;&lt;/div&gt;" style="rounded=1;whiteSpace=wrap;html=1;fillColor=#ffe6cc;strokeColor=#d79b00;fontStyle=0;strokeWidth=2;fontColor=#000000;" parent="1" vertex="1">
          <mxGeometry x="358.21" y="1344.9999999999998" width="91.03" height="30" as="geometry" />
        </mxCell>
        <mxCell id="NseHv8oOHJ2EzqwxYGIs-36" value="HAL-&lt;div&gt;Mv1&lt;/div&gt;" style="rounded=0;whiteSpace=wrap;html=1;fillColor=#fff2cc;strokeColor=#d6b656;fontSize=19;rotation=-90;fontColor=#000000;fontStyle=0" parent="1" vertex="1">
          <mxGeometry x="242.35999999999999" y="380.47" width="78.25" height="60" as="geometry" />
        </mxCell>
        <mxCell id="cf_Mk9Us5Wf3KsGlQspm-3" value="lattice_cli" style="rounded=1;whiteSpace=wrap;html=1;fillColor=#ffe6cc;strokeColor=#d79b00;fontColor=#000000;verticalAlign=middle;" parent="1" vertex="1">
          <mxGeometry x="1082.65" y="1460" width="65" height="30" as="geometry" />
        </mxCell>
        <mxCell id="cf_Mk9Us5Wf3KsGlQspm-4" value="&lt;div style=&quot;&quot;&gt;&lt;div style=&quot;&quot;&gt;&lt;div&gt;&lt;span style=&quot;background-color: initial;&quot;&gt;ccsp-mta-agent&lt;/span&gt;&lt;/div&gt;&lt;/div&gt;&lt;/div&gt;" style="rounded=1;whiteSpace=wrap;html=1;fillColor=#ffe6cc;strokeColor=#d79b00;fontColor=#000000;strokeWidth=2;" parent="1" vertex="1">
          <mxGeometry x="865.01" y="1300" width="115" height="30" as="geometry" />
        </mxCell>
        <mxCell id="6I6sj6lgImSwd84NHeRp-24" value="getpp" style="rounded=1;whiteSpace=wrap;html=1;fillColor=#ffe6cc;strokeColor=#d79b00;fontColor=#000000;" parent="1" vertex="1">
          <mxGeometry x="970.15" y="1460" width="45" height="30" as="geometry" />
        </mxCell>
        <mxCell id="cf_Mk9Us5Wf3KsGlQspm-8" value="&lt;div style=&quot;&quot;&gt;&lt;div style=&quot;&quot;&gt;&lt;div&gt;&lt;span style=&quot;background-color: initial;&quot;&gt;rdktelcovoicemanager&lt;/span&gt;&lt;br&gt;&lt;/div&gt;&lt;div&gt;cutest&lt;/div&gt;&lt;/div&gt;&lt;/div&gt;" style="rounded=1;whiteSpace=wrap;html=1;fillColor=#ffe6cc;strokeColor=#d79b00;fontColor=#000000;" parent="1" vertex="1">
          <mxGeometry x="1297.6499999999999" y="1372.22" width="135" height="37.78" as="geometry" />
        </mxCell>
        <mxCell id="cf_Mk9Us5Wf3KsGlQspm-9" value="&lt;div style=&quot;&quot;&gt;&lt;div style=&quot;&quot;&gt;&lt;div&gt;&lt;span style=&quot;background-color: initial;&quot;&gt;ccsp-mta-agent&lt;/span&gt;&lt;/div&gt;&lt;/div&gt;&lt;/div&gt;" style="rounded=1;whiteSpace=wrap;html=1;fillColor=#ffe6cc;strokeColor=#d79b00;fontColor=#000000;strokeWidth=2;" parent="1" vertex="1">
          <mxGeometry x="1297.79" y="1300" width="115" height="30" as="geometry" />
        </mxCell>
        <mxCell id="cf_Mk9Us5Wf3KsGlQspm-11" value="&lt;div style=&quot;&quot;&gt;&lt;div style=&quot;&quot;&gt;&lt;div&gt;&lt;span style=&quot;background-color: initial;&quot;&gt;ccsp-cm-agent&lt;/span&gt;&lt;br&gt;&lt;/div&gt;&lt;/div&gt;&lt;/div&gt;" style="rounded=1;whiteSpace=wrap;html=1;fillColor=#ffe6cc;strokeColor=#d79b00;fontColor=#000000;strokeWidth=2;" parent="1" vertex="1">
          <mxGeometry x="1297.6499999999999" y="1335" width="115" height="30" as="geometry" />
        </mxCell>
        <mxCell id="cf_Mk9Us5Wf3KsGlQspm-12" value="create CM network" style="rounded=1;whiteSpace=wrap;html=1;fillColor=#ffe6cc;strokeColor=#d79b00;fontColor=#000000;" parent="1" vertex="1">
          <mxGeometry x="916.4" y="940" width="145.14" height="30" as="geometry" />
        </mxCell>
        <mxCell id="cf_Mk9Us5Wf3KsGlQspm-13" value="SDK Mv1" style="rounded=0;whiteSpace=wrap;html=1;verticalAlign=top;fillColor=#ffe6cc;strokeColor=#d79b00;fontStyle=1;fontColor=#000000;" parent="1" vertex="1">
          <mxGeometry x="335.28999999999996" y="1430" width="387.36" height="140" as="geometry" />
        </mxCell>
        <mxCell id="6I6sj6lgImSwd84NHeRp-13" value="libswctl.so" style="rounded=1;whiteSpace=wrap;html=1;fillColor=#ffe6cc;strokeColor=#d79b00;fontColor=#000000;" parent="1" vertex="1">
          <mxGeometry x="363.39" y="1462.5" width="100" height="37.5" as="geometry" />
        </mxCell>
        <mxCell id="cf_Mk9Us5Wf3KsGlQspm-14" value="&lt;div&gt;snmpget&lt;/div&gt;" style="rounded=1;whiteSpace=wrap;html=1;fillColor=#ffe6cc;strokeColor=#d79b00;fontColor=#000000;" parent="1" vertex="1">
          <mxGeometry x="982.65" y="1495" width="60" height="30" as="geometry" />
        </mxCell>
        <mxCell id="cf_Mk9Us5Wf3KsGlQspm-15" value="nvram" style="rounded=1;whiteSpace=wrap;html=1;fillColor=#ffe6cc;strokeColor=#d79b00;fontColor=#000000;" parent="1" vertex="1">
          <mxGeometry x="869.86" y="1460" width="45.58" height="30" as="geometry" />
        </mxCell>
        <mxCell id="cf_Mk9Us5Wf3KsGlQspm-17" value="&lt;div&gt;/usr/sbin/swctl&lt;/div&gt;" style="rounded=1;whiteSpace=wrap;html=1;fillColor=#ffe6cc;strokeColor=#d79b00;fontColor=#000000;" parent="1" vertex="1">
          <mxGeometry x="492.65" y="1462.5" width="100" height="37.5" as="geometry" />
        </mxCell>
        <mxCell id="RQgMuBRWUg0oYU4yPysI-1" value="&lt;div style=&quot;font-weight: 700;&quot;&gt;&lt;div&gt;&lt;span style=&quot;font-weight: normal; background-color: initial;&quot;&gt;e2fsprogs&lt;/span&gt;&lt;br&gt;&lt;/div&gt;&lt;/div&gt;" style="rounded=1;whiteSpace=wrap;html=1;fillColor=#ffe6cc;strokeColor=#d79b00;fontColor=#000000;" vertex="1" parent="1">
          <mxGeometry x="1375.19" y="772.64" width="72.5" height="20" as="geometry" />
        </mxCell>
        <mxCell id="RQgMuBRWUg0oYU4yPysI-3" value="&lt;div style=&quot;&quot;&gt;lxdint lxdint-lxdinit lxdint-utopiainit lxdint-cosastart&lt;br&gt;&lt;/div&gt;" style="rounded=1;whiteSpace=wrap;html=1;fillColor=#ffe6cc;strokeColor=#d79b00;fontColor=#000000;" vertex="1" parent="1">
          <mxGeometry x="1167.27" y="660" width="172.5" height="35" as="geometry" />
        </mxCell>
        <mxCell id="RQgMuBRWUg0oYU4yPysI-6" value="&lt;div style=&quot;&quot;&gt;&lt;div style=&quot;&quot;&gt;usp-pa&lt;/div&gt;&lt;/div&gt;" style="rounded=1;whiteSpace=wrap;html=1;fillColor=#ffe6cc;strokeColor=#d79b00;fontColor=#000000;" vertex="1" parent="1">
          <mxGeometry x="1170" y="1126.68" width="50" height="20" as="geometry" />
        </mxCell>
        <mxCell id="RQgMuBRWUg0oYU4yPysI-7" value="" style="rounded=1;whiteSpace=wrap;html=1;fillColor=none;strokeColor=#d79b00;fontColor=#000000;" vertex="1" parent="1">
          <mxGeometry x="1635" y="1116.39" width="120" height="123.61" as="geometry" />
        </mxCell>
        <mxCell id="RQgMuBRWUg0oYU4yPysI-8" value="&lt;div style=&quot;&quot;&gt;&lt;div style=&quot;&quot;&gt;&lt;div&gt;parodus&lt;/div&gt;&lt;div&gt;libparodus&lt;/div&gt;&lt;div&gt;parodus2ccsp&lt;/div&gt;&lt;/div&gt;&lt;/div&gt;" style="rounded=1;whiteSpace=wrap;html=1;fillColor=#ffe6cc;strokeColor=#d79b00;fontColor=#000000;" vertex="1" parent="1">
          <mxGeometry x="1652.65" y="1152.5" width="87.73" height="47.78" as="geometry" />
        </mxCell>
        <mxCell id="RQgMuBRWUg0oYU4yPysI-9" value="&lt;div style=&quot;&quot;&gt;&lt;div style=&quot;&quot;&gt;&lt;div&gt;webcfg&lt;/div&gt;&lt;/div&gt;&lt;/div&gt;" style="rounded=1;whiteSpace=wrap;html=1;fillColor=#ffe6cc;strokeColor=#d79b00;fontColor=#000000;" vertex="1" parent="1">
          <mxGeometry x="1665" y="1206.8" width="55" height="20" as="geometry" />
        </mxCell>
        <mxCell id="RQgMuBRWUg0oYU4yPysI-10" value="&lt;div style=&quot;&quot;&gt;&lt;div style=&quot;&quot;&gt;usp-pa&lt;/div&gt;&lt;/div&gt;" style="rounded=1;whiteSpace=wrap;html=1;fillColor=#ffe6cc;strokeColor=#d79b00;fontColor=#000000;" vertex="1" parent="1">
          <mxGeometry x="1665" y="1126.68" width="50" height="20" as="geometry" />
        </mxCell>
      </root>
    </mxGraphModel>
  </diagram>
</mxfile>
